<?xml version="1.0" encoding="UTF-8"?>
<svg id="uuid-f4f44043-6381-4601-895e-56b6ea4a4062" data-name="图层 2" xmlns="http://www.w3.org/2000/svg" xmlns:xlink="http://www.w3.org/1999/xlink" viewBox="0 0 455.29 462.37">
  <defs>
    <linearGradient id="uuid-88f80e1b-e331-44f4-a776-6552c0a5409d" x1="113.01" y1="89.23" x2="337.55" y2="305.84" gradientUnits="userSpaceOnUse">
      <stop offset="0" stop-color="#0066c1"/>
      <stop offset="1" stop-color="#36e9ff"/>
    </linearGradient>
    <linearGradient id="uuid-03a084e0-4f7f-496b-b8b6-324540725d38" x1="292.48" y1="175.66" x2="466.83" y2="408.12" xlink:href="#uuid-88f80e1b-e331-44f4-a776-6552c0a5409d"/>
    <linearGradient id="uuid-23ee6071-6e58-4914-80d9-888da4ffe410" x1="-143.29" y1="-13.3" x2="165.78" y2="219.16" xlink:href="#uuid-88f80e1b-e331-44f4-a776-6552c0a5409d"/>
  </defs>
  <g id="uuid-9bd7f495-4db3-44d6-bac2-26fbb09778a1" data-name="Layer 1">
    <g>
      <path d="M255.58,247.48c40.19-28.03,85.73-50.21,123.06-81.13,37.33-30.92,66.6-74,61-118.72-.08-.66-.2-1.33-.3-1.99-15.53-27.9-41.09-41.28-70.37-45.06-19.38-2.48-38.8,3.22-58.42,10.64-2.38,1.04-4.85,1.99-7.39,2.85-13.65,5.38-27.42,11.14-41.36,15.28-39.86,19.06-75.65,44.6-105.03,74.92-18.48,19.08-34.44,40.04-47.28,62.39-41.03,71.47-49.84,156.66-24.13,233.43,2.76,8.23,5.87,16.66,6.02,25.13,13.63,22.26,27.5,36.57,40.58,37.13,21.42,.95,24.64-50.45,35.81-96.66,1.9-7.84,4.15-15.01,6.66-21.61,1.03-5.16,3.7-11,7.41-18.55,15.44-31.39,43.56-57.02,73.73-78.06Z" style="fill: url(#uuid-88f80e1b-e331-44f4-a776-6552c0a5409d);"/>
      <path d="M286.79,362.74c11.71,46.93,14.65,100.56,36.47,99.61,28.79-1.23,61.38-68.9,86.68-141.53,21.42-61.26,37.62-126.09,42.04-157.47,4.75-34.12,4.22-61.82-.47-84.11-.8-3.85-1.74-7.53-2.81-11.04-2.48-8.4-5.64-15.88-9.35-22.56,.1,.66,.22,1.32,.3,1.99,5.6,44.72-23.67,87.8-61,118.72-37.33,30.92-82.86,53.09-123.06,81.13-30.16,21.04-58.29,46.67-73.73,78.06-3.71,7.55-6.38,13.38-7.41,18.55,27.89-73.33,90.3-69.41,112.35,18.65Z" style="fill: url(#uuid-03a084e0-4f7f-496b-b8b6-324540725d38);"/>
      <path d="M109.5,166.66c12.83-22.35,28.79-43.31,47.28-62.39,29.38-30.32,65.17-55.86,105.03-74.92-11.27,3.34-22.65,5.63-34.19,5.63C178.75,34.98,125.41-7.55,77.75,1.98c-11.71,2.34-22.69,6.41-32.46,12.49-3.35,2.12-6.63,4.46-9.71,7.02C7.95,44.79-7.11,88.72,3.33,163.36c4.09,29.71,18.88,89.35,38.55,147.66,14.56,43.04,31.82,85.32,49.51,114.21-.15-8.48-3.27-16.9-6.02-25.13-25.71-76.76-16.9-161.95,24.13-233.43Z" style="fill: url(#uuid-23ee6071-6e58-4914-80d9-888da4ffe410);"/>
    </g>
  </g>
</svg>