<?xml version="1.0" encoding="UTF-8"?>
<svg xmlns="http://www.w3.org/2000/svg" xmlns:xlink="http://www.w3.org/1999/xlink" viewBox="0 0 35.11 21.08">
  <defs>
    <radialGradient id="uuid-c73bcd7e-e5bb-4a45-9159-39e5d6ca7886" cx="82.24" cy="-1252.96" fx="109.59" fy="-1252.96" r="109.46" gradientTransform="translate(4.15 38.77) rotate(2.57) scale(.06 .02) skewX(-1.54)" gradientUnits="userSpaceOnUse">
      <stop offset="0" stop-color="#272727"/>
      <stop offset=".05" stop-color="#383838"/>
      <stop offset=".24" stop-color="#7e7e7e"/>
      <stop offset=".42" stop-color="#b5b5b5"/>
      <stop offset=".57" stop-color="#ddd"/>
      <stop offset=".7" stop-color="#f5f5f5"/>
      <stop offset=".77" stop-color="#fff"/>
    </radialGradient>
    <radialGradient id="uuid-2fea484e-4aed-4b0e-8915-340d7394806d" cx="341.82" cy="-1328.31" fx="369.17" fy="-1328.31" r="109.46" xlink:href="#uuid-c73bcd7e-e5bb-4a45-9159-39e5d6ca7886"/>
    <radialGradient id="uuid-cf46146d-bbb9-4e3e-a099-48ccb0b3068b" cx="-141.71" cy="-1188.14" fx="-114.36" fy="-1188.14" r="109.48" gradientTransform="translate(.4 38.77) rotate(177.43) scale(.06 -.02) skewX(-1.54)" xlink:href="#uuid-c73bcd7e-e5bb-4a45-9159-39e5d6ca7886"/>
    <radialGradient id="uuid-0ccd8f27-3220-4c7a-abcc-2e163c085188" cx="150.38" cy="-1322.8" fx="177.73" fy="-1322.8" r="109.47" gradientTransform="translate(32.21 38.77) rotate(177.43) scale(.06 -.02) skewX(-1.54)" xlink:href="#uuid-c73bcd7e-e5bb-4a45-9159-39e5d6ca7886"/>
  </defs>
  <g style="isolation: isolate;">
    <g id="uuid-8b706954-c647-4e2d-970b-e3f4ee2595d3" data-name="图层 2">
      <g id="uuid-8db65603-aed7-4393-9404-ad04e4a78782" data-name="Layer 1">
        <g>
          <path d="M18.7,19.18c-.14,.97-3.33,1.62-7.11,1.46-3.79-.16-6.73-1.09-6.59-2.06,.14-.98,3.32-1.64,7.11-1.46,3.78,.16,6.74,1.09,6.59,2.06Z" style="fill: url(#uuid-c73bcd7e-e5bb-4a45-9159-39e5d6ca7886); mix-blend-mode: multiply; opacity: .34;"/>
          <path d="M35.1,18.69c-.14,.97-3.33,1.62-7.11,1.46-3.79-.16-6.73-1.09-6.59-2.06,.14-.98,3.32-1.64,7.11-1.46,3.78,.16,6.73,1.09,6.59,2.06Z" style="fill: url(#uuid-2fea484e-4aed-4b0e-8915-340d7394806d); mix-blend-mode: multiply; opacity: .34;"/>
          <path d="M0,19.6c.14,.97,3.33,1.62,7.11,1.46,3.79-.16,6.74-1.09,6.59-2.06-.14-.98-3.32-1.64-7.11-1.46C2.81,17.69-.14,18.62,0,19.6Z" style="fill: url(#uuid-cf46146d-bbb9-4e3e-a099-48ccb0b3068b); mix-blend-mode: multiply; opacity: .34;"/>
          <path d="M13.23,18.25c.14,.97,3.33,1.63,7.11,1.46,3.79-.16,6.74-1.09,6.59-2.06-.14-.98-3.32-1.64-7.11-1.46-3.78,.16-6.73,1.09-6.59,2.06Z" style="fill: url(#uuid-0ccd8f27-3220-4c7a-abcc-2e163c085188); mix-blend-mode: multiply; opacity: .34;"/>
          <path d="M18.01,17.75c-4.14-.37,1.67-7.27,2.53-9.33,1.96-4.58-11.73-1.58-5-3.32,4.48-1.27,8.91,0,11.67-1.21,1.26-.58,2.58-1.16,4.25-2.48,2.93-2.27,4.43-1.74,.8,1-4.6,3.43-4.77,2.64-9.37,7.22l-.17,.16c-1.04,1.05-1.96,2.06-2.76,2.95l-.12,.16c-.12,.16-.29,.37-.4,.53l-.11,.16-.11,.11-.11,.16h0c-1.38,1.84-1.95,3.27-1.09,3.9h0Z" style="fill: #00a687; fill-rule: evenodd;"/>
          <path d="M23.81,3.84c.98,.05,1.73-.05,2.3-.21,.4-.16,.75-.31,.92-.63,.41-.58,.35-1.11-.23-1.69-.58-.53-1.38-.9-2.7-1.11-.86-.16-1.61-.16-2.24-.05-.29,.05-.58,.11-.8,.21-.86,.37-1.15,.95-.86,1.69,.06,.21,.17,.37,.4,.53,.57,.53,1.67,1,3.22,1.26h0Z" style="fill: #0067d3; fill-rule: evenodd;"/>
          <path d="M26.51,7.01c-2.3,1.69-3.74,4.16-5.12,6.06,.8-.21,1.72-.26,2.7-.05,2.82,.53,4.37,2.43,6.21,5.38-.46-1.42-2.53-5.32-3.62-7.27-.35-.68-.57-1.32-.63-1.79-.17-.68-.17-1.37,.17-1.9,.06-.16,.17-.26,.29-.42h0Z" style="fill: #0067d3; fill-rule: evenodd;"/>
          <path d="M13.98,18.65c3.22-.26-1.21-5.59-1.9-7.22-1.5-3.48,9.03-1.21,3.79-2.53-3.45-.95-6.84,0-8.97-.95-.98-.42-1.96-.9-3.28-1.9-2.24-1.74-3.39-1.37-.58,.74,3.51,2.69,3.68,2.11,7.19,5.64l.12,.11c.8,.79,1.55,1.53,2.13,2.26l.11,.11c.12,.16,.23,.26,.35,.42l.06,.1,.06,.1,.11,.11h0c1.04,1.42,1.5,2.53,.8,3.01h0Z" style="fill: #00a682; fill-rule: evenodd;"/>
          <path d="M9.5,7.9c-.75,.05-1.32,0-1.72-.16-.35-.1-.58-.21-.69-.47-.34-.42-.29-.84,.11-1.26,.46-.42,1.09-.69,2.13-.9,.63-.11,1.26-.11,1.72-.05,.23,.05,.4,.11,.63,.21,.63,.26,.86,.69,.63,1.27-.06,.16-.12,.31-.29,.42-.46,.42-1.27,.74-2.53,.95h0Z" style="fill: #006ed3; fill-rule: evenodd;"/>
          <path d="M7.49,10.38c1.72,1.27,2.87,3.21,3.91,4.64-.63-.16-1.32-.16-2.07,0-2.19,.42-3.39,1.84-4.77,4.11,.29-1.11,1.95-4.06,2.76-5.59,.29-.53,.46-1,.52-1.42,.11-.53,.11-1-.12-1.42-.11-.1-.17-.21-.23-.32h0Z" style="fill: #006ed3; fill-rule: evenodd;"/>
        </g>
      </g>
    </g>
  </g>
</svg>