<?xml version="1.0" encoding="UTF-8" standalone="no"?>
<!DOCTYPE svg PUBLIC "-//W3C//DTD SVG 1.1//EN" "http://www.w3.org/Graphics/SVG/1.1/DTD/svg11.dtd">
<!-- 由 Microsoft Visio, SVG Export 生成 路线图.svg Page-1 -->
<svg xmlns="http://www.w3.org/2000/svg" xmlns:xlink="http://www.w3.org/1999/xlink" xmlns:ev="http://www.w3.org/2001/xml-events"
		xmlns:v="http://schemas.microsoft.com/visio/2003/SVGExtensions/" width="5.54979in" height="5.1088in"
		viewBox="0 0 399.585 367.833" xml:space="preserve" color-interpolation-filters="sRGB" class="st14">
	<v:documentProperties v:langID="2052" v:metric="true" v:viewMarkup="false">
		<v:userDefs>
			<v:ud v:nameU="msvNoAutoConnect" v:val="VT0(1):26"/>
		</v:userDefs>
	</v:documentProperties>

	<style type="text/css">
	<![CDATA[
		.st1 {stroke:#000000;stroke-linecap:round;stroke-linejoin:round;stroke-width:0.75}
		.st2 {fill:none;stroke:none;stroke-linecap:round;stroke-linejoin:round;stroke-width:0.75}
		.st3 {fill:#000000;font-family:Times New Roman;font-size:1.00001em}
		.st4 {fill:#ff0000;stroke:#000000;stroke-linecap:round;stroke-linejoin:round;stroke-width:0.24}
		.st5 {fill:#ffffff;stroke:#000000;stroke-linecap:round;stroke-linejoin:round;stroke-width:0.75}
		.st6 {marker-end:url(#mrkr5-104);stroke:#ea700d;stroke-linecap:round;stroke-linejoin:round;stroke-width:1.5}
		.st7 {fill:#ea700d;fill-opacity:1;stroke:#ea700d;stroke-opacity:1;stroke-width:0.37313432835821}
		.st8 {marker-end:url(#mrkr5-125);stroke:#31859b;stroke-linecap:round;stroke-linejoin:round;stroke-width:1.5}
		.st9 {fill:#31859b;fill-opacity:1;stroke:#31859b;stroke-opacity:1;stroke-width:0.37313432835821}
		.st10 {marker-end:url(#mrkr5-146);stroke:#789440;stroke-linecap:round;stroke-linejoin:round;stroke-width:1.5}
		.st11 {fill:#789440;fill-opacity:1;stroke:#789440;stroke-opacity:1;stroke-width:0.37313432835821}
		.st12 {fill:#260a50;stroke:none;stroke-linecap:butt;stroke-width:0.146484}
		.st13 {fill:#f04fc0;stroke:none;stroke-linecap:butt;stroke-width:0.146484}
		.st14 {fill:none;fill-rule:evenodd;font-size:12px;overflow:visible;stroke-linecap:square;stroke-miterlimit:3}
	]]>
	</style>

	<defs id="Markers">
		<g id="lend5">
			<path d="M 2 1 L 0 0 L 1.98117 -0.993387 C 1.67173 -0.364515 1.67301 0.372641 1.98465 1.00043 " style="stroke:none"/>
		</g>
		<marker id="mrkr5-104" class="st7" v:arrowType="5" v:arrowSize="2" v:setback="4.69" refX="-4.69" orient="auto"
				markerUnits="strokeWidth" overflow="visible">
			<use xlink:href="#lend5" transform="scale(-2.68,-2.68) "/>
		</marker>
		<marker id="mrkr5-125" class="st9" v:arrowType="5" v:arrowSize="2" v:setback="4.69" refX="-4.69" orient="auto"
				markerUnits="strokeWidth" overflow="visible">
			<use xlink:href="#lend5" transform="scale(-2.68,-2.68) "/>
		</marker>
		<marker id="mrkr5-146" class="st11" v:arrowType="5" v:arrowSize="2" v:setback="4.69" refX="-4.69" orient="auto"
				markerUnits="strokeWidth" overflow="visible">
			<use xlink:href="#lend5" transform="scale(-2.68,-2.68) "/>
		</marker>
	</defs>
	<g v:mID="0" v:index="1" v:groupContext="foregroundPage">
		<title>页-1</title>
		<v:pageProperties v:drawingScale="0.0393701" v:pageScale="0.0393701" v:drawingUnits="24" v:shadowOffsetX="8.50394"
				v:shadowOffsetY="-8.50394"/>
		<g id="shape1-1" v:mID="1" v:groupContext="shape" transform="translate(44.7434,-31.9988)">
			<title>工作表.1</title>
			<path d="M0 62.4 L0 367.83 L302.45 367.83" class="st1"/>
		</g>
		<g id="shape2-4" v:mID="2" v:groupContext="shape" transform="translate(61.7513,-20.9482)">
			<title>工作表.2</title>
			<desc>1</desc>
			<v:textBlock v:margins="rect(4,4,4,4)" v:tabSpace="42.5197"/>
			<v:textRect cx="7.08661" cy="363.581" width="14.18" height="8.50394"/>
			<rect x="0" y="359.329" width="14.1732" height="8.50394" class="st2"/>
			<text x="4.09" y="367.18" class="st3" v:langID="2052"><v:paragraph v:horizAlign="1"/><v:tabList/>1</text>		</g>
		<g id="shape3-7" v:mID="3" v:groupContext="shape" transform="translate(90.0977,-20.9482)">
			<title>工作表.3</title>
			<desc>2</desc>
			<v:textBlock v:margins="rect(4,4,4,4)" v:tabSpace="42.5197"/>
			<v:textRect cx="7.08661" cy="363.581" width="14.18" height="8.50394"/>
			<rect x="0" y="359.329" width="14.1732" height="8.50394" class="st2"/>
			<text x="4.09" y="367.18" class="st3" v:langID="2052"><v:paragraph v:horizAlign="1"/><v:tabList/>2</text>		</g>
		<g id="shape4-10" v:mID="4" v:groupContext="shape" transform="translate(119.005,-20.9482)">
			<title>工作表.4</title>
			<desc>3</desc>
			<v:textBlock v:margins="rect(4,4,4,4)" v:tabSpace="42.5197"/>
			<v:textRect cx="7.08661" cy="363.581" width="14.18" height="8.50394"/>
			<rect x="0" y="359.329" width="14.1732" height="8.50394" class="st2"/>
			<text x="4.09" y="367.18" class="st3" v:langID="2052"><v:paragraph v:horizAlign="1"/><v:tabList/>3</text>		</g>
		<g id="shape5-13" v:mID="5" v:groupContext="shape" transform="translate(148.208,-20.9482)">
			<title>工作表.5</title>
			<desc>4</desc>
			<v:textBlock v:margins="rect(4,4,4,4)" v:tabSpace="42.5197"/>
			<v:textRect cx="7.08661" cy="363.581" width="14.18" height="8.50394"/>
			<rect x="0" y="359.329" width="14.1732" height="8.50394" class="st2"/>
			<text x="4.09" y="367.18" class="st3" v:langID="2052"><v:paragraph v:horizAlign="1"/><v:tabList/>4</text>		</g>
		<g id="shape6-16" v:mID="6" v:groupContext="shape" transform="translate(175.137,-20.9482)">
			<title>工作表.6</title>
			<desc>5</desc>
			<v:textBlock v:margins="rect(4,4,4,4)" v:tabSpace="42.5197"/>
			<v:textRect cx="7.08661" cy="363.581" width="14.18" height="8.50394"/>
			<rect x="0" y="359.329" width="14.1732" height="8.50394" class="st2"/>
			<text x="4.09" y="367.18" class="st3" v:langID="2052"><v:paragraph v:horizAlign="1"/><v:tabList/>5</text>		</g>
		<g id="shape7-19" v:mID="7" v:groupContext="shape" transform="translate(203.484,-20.9482)">
			<title>工作表.7</title>
			<desc>6</desc>
			<v:textBlock v:margins="rect(4,4,4,4)" v:tabSpace="42.5197"/>
			<v:textRect cx="7.08661" cy="363.581" width="14.18" height="8.50394"/>
			<rect x="0" y="359.329" width="14.1732" height="8.50394" class="st2"/>
			<text x="4.09" y="367.18" class="st3" v:langID="2052"><v:paragraph v:horizAlign="1"/><v:tabList/>6</text>		</g>
		<g id="shape8-22" v:mID="8" v:groupContext="shape" transform="translate(231.83,-20.9482)">
			<title>工作表.8</title>
			<desc>7</desc>
			<v:textBlock v:margins="rect(4,4,4,4)" v:tabSpace="42.5197"/>
			<v:textRect cx="7.08661" cy="363.581" width="14.18" height="8.50394"/>
			<rect x="0" y="359.329" width="14.1732" height="8.50394" class="st2"/>
			<text x="4.09" y="367.18" class="st3" v:langID="2052"><v:paragraph v:horizAlign="1"/><v:tabList/>7</text>		</g>
		<g id="shape9-25" v:mID="9" v:groupContext="shape" transform="translate(260.176,-20.9482)">
			<title>工作表.9</title>
			<desc>8</desc>
			<v:textBlock v:margins="rect(4,4,4,4)" v:tabSpace="42.5197"/>
			<v:textRect cx="7.08661" cy="363.581" width="14.18" height="8.50394"/>
			<rect x="0" y="359.329" width="14.1732" height="8.50394" class="st2"/>
			<text x="4.09" y="367.18" class="st3" v:langID="2052"><v:paragraph v:horizAlign="1"/><v:tabList/>8</text>		</g>
		<g id="shape10-28" v:mID="10" v:groupContext="shape" transform="translate(288.523,-20.9482)">
			<title>工作表.10</title>
			<desc>9</desc>
			<v:textBlock v:margins="rect(4,4,4,4)" v:tabSpace="42.5197"/>
			<v:textRect cx="7.08661" cy="363.581" width="14.18" height="8.50394"/>
			<rect x="0" y="359.329" width="14.1732" height="8.50394" class="st2"/>
			<text x="4.09" y="367.18" class="st3" v:langID="2052"><v:paragraph v:horizAlign="1"/><v:tabList/>9</text>		</g>
		<g id="shape11-31" v:mID="11" v:groupContext="shape" transform="translate(304.394,-20.9482)">
			<title>工作表.11</title>
			<desc>10</desc>
			<v:textBlock v:margins="rect(4,4,4,4)" v:tabSpace="42.5197"/>
			<v:textRect cx="19.5621" cy="363.581" width="39.13" height="8.50394"/>
			<rect x="0" y="359.329" width="39.1243" height="8.50394" class="st2"/>
			<text x="13.56" y="367.18" class="st3" v:langID="2052"><v:paragraph v:horizAlign="1"/><v:tabList/>10</text>		</g>
		<g id="shape12-34" v:mID="12" v:groupContext="shape" transform="translate(33.9656,-50.5421)">
			<title>工作表.12</title>
			<desc>1</desc>
			<v:textBlock v:margins="rect(4,4,4,4)" v:tabSpace="42.5197"/>
			<v:textRect cx="7.08661" cy="363.581" width="14.18" height="8.50394"/>
			<rect x="0" y="359.329" width="14.1732" height="8.50394" class="st2"/>
			<text x="4.09" y="367.18" class="st3" v:langID="2052"><v:paragraph v:horizAlign="1"/><v:tabList/>1</text>		</g>
		<g id="shape13-37" v:mID="13" v:groupContext="shape" transform="translate(33.9656,-80.136)">
			<title>工作表.13</title>
			<desc>2</desc>
			<v:textBlock v:margins="rect(4,4,4,4)" v:tabSpace="42.5197"/>
			<v:textRect cx="7.08661" cy="363.581" width="14.18" height="8.50394"/>
			<rect x="0" y="359.329" width="14.1732" height="8.50394" class="st2"/>
			<text x="4.09" y="367.18" class="st3" v:langID="2052"><v:paragraph v:horizAlign="1"/><v:tabList/>2</text>		</g>
		<g id="shape14-40" v:mID="14" v:groupContext="shape" transform="translate(33.9656,-107.83)">
			<title>工作表.14</title>
			<desc>3</desc>
			<v:textBlock v:margins="rect(4,4,4,4)" v:tabSpace="42.5197"/>
			<v:textRect cx="7.08661" cy="363.581" width="14.18" height="8.50394"/>
			<rect x="0" y="359.329" width="14.1732" height="8.50394" class="st2"/>
			<text x="4.09" y="367.18" class="st3" v:langID="2052"><v:paragraph v:horizAlign="1"/><v:tabList/>3</text>		</g>
		<g id="shape15-43" v:mID="15" v:groupContext="shape" transform="translate(33.9656,-135.524)">
			<title>工作表.15</title>
			<desc>4</desc>
			<v:textBlock v:margins="rect(4,4,4,4)" v:tabSpace="42.5197"/>
			<v:textRect cx="7.08661" cy="363.581" width="14.18" height="8.50394"/>
			<rect x="0" y="359.329" width="14.1732" height="8.50394" class="st2"/>
			<text x="4.09" y="367.18" class="st3" v:langID="2052"><v:paragraph v:horizAlign="1"/><v:tabList/>4</text>		</g>
		<g id="shape16-46" v:mID="16" v:groupContext="shape" transform="translate(33.9656,-163.218)">
			<title>工作表.16</title>
			<desc>5</desc>
			<v:textBlock v:margins="rect(4,4,4,4)" v:tabSpace="42.5197"/>
			<v:textRect cx="7.08661" cy="363.581" width="14.18" height="8.50394"/>
			<rect x="0" y="359.329" width="14.1732" height="8.50394" class="st2"/>
			<text x="4.09" y="367.18" class="st3" v:langID="2052"><v:paragraph v:horizAlign="1"/><v:tabList/>5</text>		</g>
		<g id="shape17-49" v:mID="17" v:groupContext="shape" transform="translate(33.9656,-192.869)">
			<title>工作表.17</title>
			<desc>6</desc>
			<v:textBlock v:margins="rect(4,4,4,4)" v:tabSpace="42.5197"/>
			<v:textRect cx="7.08661" cy="363.581" width="14.18" height="8.50394"/>
			<rect x="0" y="359.329" width="14.1732" height="8.50394" class="st2"/>
			<text x="4.09" y="367.18" class="st3" v:langID="2052"><v:paragraph v:horizAlign="1"/><v:tabList/>6</text>		</g>
		<g id="shape18-52" v:mID="18" v:groupContext="shape" transform="translate(33.9656,-222.917)">
			<title>工作表.18</title>
			<desc>7</desc>
			<v:textBlock v:margins="rect(4,4,4,4)" v:tabSpace="42.5197"/>
			<v:textRect cx="7.08661" cy="363.581" width="14.18" height="8.50394"/>
			<rect x="0" y="359.329" width="14.1732" height="8.50394" class="st2"/>
			<text x="4.09" y="367.18" class="st3" v:langID="2052"><v:paragraph v:horizAlign="1"/><v:tabList/>7</text>		</g>
		<g id="shape19-55" v:mID="19" v:groupContext="shape" transform="translate(33.9656,-252.964)">
			<title>工作表.19</title>
			<desc>8</desc>
			<v:textBlock v:margins="rect(4,4,4,4)" v:tabSpace="42.5197"/>
			<v:textRect cx="7.08661" cy="363.581" width="14.18" height="8.50394"/>
			<rect x="0" y="359.329" width="14.1732" height="8.50394" class="st2"/>
			<text x="4.09" y="367.18" class="st3" v:langID="2052"><v:paragraph v:horizAlign="1"/><v:tabList/>8</text>		</g>
		<g id="shape20-58" v:mID="20" v:groupContext="shape" transform="translate(33.9656,-283.011)">
			<title>工作表.20</title>
			<desc>9</desc>
			<v:textBlock v:margins="rect(4,4,4,4)" v:tabSpace="42.5197"/>
			<v:textRect cx="7.08661" cy="363.581" width="14.18" height="8.50394"/>
			<rect x="0" y="359.329" width="14.1732" height="8.50394" class="st2"/>
			<text x="4.09" y="367.18" class="st3" v:langID="2052"><v:paragraph v:horizAlign="1"/><v:tabList/>9</text>		</g>
		<g id="shape21-61" v:mID="21" v:groupContext="shape" transform="translate(139.704,-116.334)">
			<title>五角星</title>
			<v:userDefs>
				<v:ud v:nameU="CtrlYOffset" v:prompt="" v:val="VT0(0.17716535433071):24"/>
				<v:ud v:nameU="CtrlXOffset" v:prompt="" v:val="VT0(0.1287181644104):24"/>
				<v:ud v:nameU="CtrlAngle" v:prompt="" v:val="VT0(0.62831853071796):26"/>
				<v:ud v:nameU="ElbowDist" v:prompt="" v:val="VT0(0.21898842121059):24"/>
				<v:ud v:nameU="visVersion" v:prompt="" v:val="VT0(15):26"/>
				<v:ud v:nameU="CtrlYOffset" v:prompt="" v:val="VT0(0.044291338582677):1"/>
				<v:ud v:nameU="CtrlXOffset" v:prompt="" v:val="VT0(0.0321795411026):1"/>
				<v:ud v:nameU="ElbowDist" v:prompt="" v:val="VT0(0.054747105302648):1"/>
			</v:userDefs>
			<path d="M10.63 346.57 L12.95 354.01 L20.74 353.92 L14.38 358.42 L16.88 365.8 L10.63 361.15 L4.38 365.8 L6.88 358.42
						 L0.52 353.92 L8.31 354.01 L10.63 346.57 Z" class="st4"/>
		</g>
		<g id="shape22-63" v:mID="22" v:groupContext="shape" transform="translate(60.8947,-45.4679)">
			<title>工作表.22</title>
			<ellipse cx="4.25197" cy="363.581" rx="4.25197" ry="4.25197" class="st5"/>
		</g>
		<g id="shape23-65" v:mID="23" v:groupContext="shape" transform="translate(347.194,-22.7907)">
			<title>工作表.23</title>
			<desc>x100</desc>
			<v:textBlock v:margins="rect(4,4,4,4)" v:tabSpace="42.5197"/>
			<v:textRect cx="17.0079" cy="363.229" width="34.02" height="9.20804"/>
			<rect x="0" y="358.625" width="34.0157" height="9.20804" class="st2"/>
			<text x="5.01" y="366.83" class="st3" v:langID="2052"><v:paragraph v:horizAlign="1"/><v:tabList/>x100</text>		</g>
		<g id="shape24-68" v:mID="24" v:groupContext="shape" transform="translate(26.8789,-340.157)">
			<title>工作表.24</title>
			<desc>x100</desc>
			<v:textBlock v:margins="rect(4,4,4,4)" v:tabSpace="42.5197"/>
			<v:textRect cx="17.0079" cy="363.229" width="34.02" height="9.20804"/>
			<rect x="0" y="358.625" width="34.0157" height="9.20804" class="st2"/>
			<text x="5.01" y="366.83" class="st3" v:langID="2052"><v:paragraph v:horizAlign="1"/><v:tabList/>x100</text>		</g>
		<g id="shape25-71" v:mID="25" v:groupContext="shape" transform="translate(64.8508,-40.9043)">
			<title>工作表.25</title>
			<desc>AM01</desc>
			<v:textBlock v:margins="rect(4,4,4,4)" v:tabSpace="42.5197"/>
			<v:textRect cx="25.9401" cy="350.631" width="51.89" height="34.4037"/>
			<rect x="0" y="333.43" width="51.8802" height="34.4037" class="st2"/>
			<text x="10.27" y="354.23" class="st3" v:langID="2052"><v:paragraph v:horizAlign="1"/><v:tabList/>AM01</text>		</g>
		<g id="shape26-74" v:mID="26" v:groupContext="shape" transform="translate(49.5561,-65.3104)">
			<title>工作表.26</title>
			<ellipse cx="4.25197" cy="363.581" rx="4.25197" ry="4.25197" class="st5"/>
		</g>
		<g id="shape27-76" v:mID="27" v:groupContext="shape" transform="translate(43.4996,-65.3104)">
			<title>工作表.27</title>
			<desc>AM02</desc>
			<v:textBlock v:margins="rect(4,4,4,4)" v:tabSpace="42.5197"/>
			<v:textRect cx="20.184" cy="350.631" width="40.37" height="34.4037"/>
			<rect x="0" y="333.43" width="40.368" height="34.4037" class="st2"/>
			<text x="4.52" y="354.23" class="st3" v:langID="2052"><v:paragraph v:horizAlign="1"/><v:tabList/>AM02</text>		</g>
		<g id="shape28-79" v:mID="28" v:groupContext="shape" transform="translate(300.422,-282.161)">
			<title>工作表.28</title>
			<ellipse cx="4.25197" cy="363.581" rx="4.25197" ry="4.25197" class="st5"/>
		</g>
		<g id="shape29-81" v:mID="29" v:groupContext="shape" transform="translate(308.07,-276.949)">
			<title>工作表.29</title>
			<desc>AM03</desc>
			<v:textBlock v:margins="rect(4,4,4,4)" v:tabSpace="42.5197"/>
			<v:textRect cx="25.9401" cy="350.631" width="51.89" height="34.4037"/>
			<rect x="0" y="333.43" width="51.8802" height="34.4037" class="st2"/>
			<text x="10.27" y="354.23" class="st3" v:langID="2052"><v:paragraph v:horizAlign="1"/><v:tabList/>AM03</text>		</g>
		<g id="shape30-84" v:mID="30" v:groupContext="shape" transform="translate(266.406,-269.405)">
			<title>工作表.30</title>
			<ellipse cx="4.25197" cy="363.581" rx="4.25197" ry="4.25197" class="st5"/>
		</g>
		<g id="shape31-86" v:mID="31" v:groupContext="shape" transform="translate(234.93,-269.211)">
			<title>工作表.31</title>
			<desc>AM04</desc>
			<v:textBlock v:margins="rect(4,4,4,4)" v:tabSpace="42.5197"/>
			<v:textRect cx="25.9401" cy="350.631" width="51.89" height="34.4037"/>
			<rect x="0" y="333.43" width="51.8802" height="34.4037" class="st2"/>
			<text x="10.27" y="354.23" class="st3" v:langID="2052"><v:paragraph v:horizAlign="1"/><v:tabList/>AM04</text>		</g>
		<g id="shape32-89" v:mID="32" v:groupContext="shape" transform="translate(131.761,-137.594)">
			<title>工作表.32</title>
			<ellipse cx="4.25197" cy="363.581" rx="4.25197" ry="4.25197" class="st5"/>
		</g>
		<g id="shape33-91" v:mID="33" v:groupContext="shape" transform="translate(102.451,-138.623)">
			<title>工作表.33</title>
			<desc>AM05</desc>
			<v:textBlock v:margins="rect(4,4,4,4)" v:tabSpace="42.5197"/>
			<v:textRect cx="20.184" cy="350.631" width="40.37" height="34.4037"/>
			<rect x="0" y="333.43" width="40.368" height="34.4037" class="st2"/>
			<text x="4.52" y="354.23" class="st3" v:langID="2052"><v:paragraph v:horizAlign="1"/><v:tabList/>AM05</text>		</g>
		<g id="shape34-94" v:mID="34" v:groupContext="shape" transform="translate(278.321,-306.255)">
			<title>工作表.34</title>
			<ellipse cx="4.25197" cy="363.581" rx="4.25197" ry="4.25197" class="st5"/>
		</g>
		<g id="shape35-96" v:mID="35" v:groupContext="shape" transform="translate(263.011,-308.896)">
			<title>工作表.35</title>
			<desc>AM06</desc>
			<v:textBlock v:margins="rect(4,4,4,4)" v:tabSpace="42.5197"/>
			<v:textRect cx="20.184" cy="350.631" width="40.37" height="34.4037"/>
			<rect x="0" y="333.43" width="40.368" height="34.4037" class="st2"/>
			<text x="4.52" y="354.23" class="st3" v:langID="2052"><v:paragraph v:horizAlign="1"/><v:tabList/>AM06</text>		</g>
		<g id="shape36-99" v:mID="36" v:groupContext="shape" transform="translate(385.135,497.258) rotate(136.779)">
			<title>工作表.36</title>
			<path d="M0 367.83 L100.02 367.83" class="st6"/>
		</g>
		<g id="shape37-105" v:mID="37" v:groupContext="shape" transform="translate(-100.681,508.698) rotate(-137.459)">
			<title>工作表.37</title>
			<path d="M0 367.83 L5.49 367.83" class="st6"/>
		</g>
		<g id="shape38-110" v:mID="38" v:groupContext="shape" transform="translate(335.75,64.5996) rotate(49.6975)">
			<title>工作表.38</title>
			<path d="M0 367.83 L7.85 367.83" class="st6"/>
		</g>
		<g id="shape39-115" v:mID="39" v:groupContext="shape" transform="translate(-152.902,22.2221) rotate(-37.0485)">
			<title>工作表.39</title>
			<path d="M0 367.83 L103.06 367.83" class="st6"/>
		</g>
		<g id="shape40-120" v:mID="40" v:groupContext="shape" transform="translate(399.45,509.221) rotate(136.572)">
			<title>工作表.40</title>
			<path d="M0 367.83 L100.19 367.83" class="st8"/>
		</g>
		<g id="shape41-126" v:mID="41" v:groupContext="shape" transform="translate(-257.445,502.577) rotate(-120.065)">
			<title>工作表.41</title>
			<path d="M0 367.83 L15.55 367.83" class="st8"/>
		</g>
		<g id="shape42-131" v:mID="42" v:groupContext="shape" transform="translate(-191.556,18.5835) rotate(-41.3321)">
			<title>工作表.42</title>
			<path d="M0 367.83 L102.3 367.83" class="st8"/>
		</g>
		<g id="shape43-136" v:mID="43" v:groupContext="shape" transform="translate(338.907,-85.91) rotate(33.0646)">
			<title>工作表.43</title>
			<path d="M0 367.83 L7.42 367.83" class="st8"/>
		</g>
		<g id="shape44-141" v:mID="44" v:groupContext="shape" transform="translate(-130.617,12.6732) rotate(-52.3057)">
			<title>工作表.44</title>
			<path d="M0 367.83 L168.58 367.83" class="st10"/>
		</g>
		<g id="shape45-147" v:mID="45" v:groupContext="shape" transform="translate(174.691,-260.555) rotate(-15.7986)">
			<title>工作表.45</title>
			<path d="M0 367.83 L27.5 367.83" class="st10"/>
		</g>
		<g id="shape46-152" v:mID="46" v:groupContext="shape" transform="translate(58.4348,349.016) rotate(-137.261)">
			<title>工作表.46</title>
			<path d="M0 367.83 L22.32 367.83" class="st10"/>
		</g>
		<g id="shape47-157" v:mID="47" v:groupContext="shape" transform="translate(574.448,287.831) rotate(128.482)">
			<title>工作表.47</title>
			<path d="M0 367.83 L211.8 367.83" class="st10"/>
		</g>
		<g id="group48-162" transform="translate(175.785,-215.547)" v:mID="48" v:groupContext="group">
			<title>工作表.48</title>
			<g id="shape49-163" v:mID="49" v:groupContext="shape" transform="translate(2.01839E-013,-9.81013)">
				<title>工作表.49</title>
				<path d="M24.54 356.07 C25.22 356.07 25.78 356.48 25.78 356.98 L25.78 366.17 L2.27 366.17 L2.27 357.43 C2.27 356.68
							 3.1 356.07 4.12 356.07 L24.54 356.07 ZM24.54 354.4 L4.12 354.4 C1.85 354.4 0 355.76 0 357.43 L0 367.83
							 L28.05 367.83 L28.05 356.98 C28.05 355.55 26.48 354.4 24.54 354.4 Z" class="st12"/>
			</g>
			<g id="shape50-165" v:mID="50" v:groupContext="shape" transform="translate(25.7815,-9.81771)">
				<title>工作表.50</title>
				<path d="M4.21 358.58 L12.3 363.56 L12.3 366.17 L2.62 366.17 L2.62 358.59 L4.21 358.58 ZM5.29 356.9 L0 356.9 L0 367.83
							 L14.57 367.83 L14.57 362.85 L5.29 356.9 Z" class="st12"/>
			</g>
			<g id="shape51-167" v:mID="51" v:groupContext="shape" transform="translate(0,-2.66102)">
				<title>工作表.51</title>
				<path d="M25.04 366.17 L13.96 366.17 C14 366.36 14.03 366.57 14.03 366.78 C14.03 367.14 13.96 367.5 13.82 367.83
							 L25.18 367.83 C25.05 367.5 24.98 367.14 24.98 366.78 C24.97 366.57 24.99 366.37 25.04 366.17 ZM0 359.02
							 L0 367.83 L4.13 367.83 C4 367.5 3.93 367.14 3.93 366.78 C3.93 366.57 3.95 366.37 4 366.17 L2.27 366.17
							 L2.27 360.68 L38.08 360.68 L38.08 364.8 C38.08 365.55 37.24 366.17 36.22 366.17 L35.01 366.17 C35.05
							 366.36 35.08 366.57 35.08 366.78 C35.08 367.14 35.01 367.5 34.87 367.83 L36.23 367.83 C38.51 367.83
							 40.37 366.48 40.37 364.8 L40.37 359.02 L0 359.02 Z" class="st12"/>
			</g>
			<g id="shape52-169" v:mID="52" v:groupContext="shape" transform="translate(3.91723,1.13687E-013)">
				<title>工作表.52</title>
				<path d="M5.05 362.07 C6.59 362.07 7.83 362.99 7.83 364.12 C7.83 365.25 6.59 366.17 5.05 366.17 C3.52 366.17 2.27
							 365.25 2.27 364.12 C2.27 362.99 3.52 362.07 5.05 362.07 ZM5.05 360.4 C2.26 360.4 0 362.06 0 364.12 C0
							 366.17 2.26 367.83 5.05 367.83 C7.84 367.83 10.1 366.17 10.1 364.12 C10.1 362.06 7.84 360.4 5.05 360.4
							 ZM26.1 362.07 C27.64 362.07 28.88 362.99 28.88 364.12 C28.88 365.25 27.64 366.17 26.1 366.17 C24.57
							 366.17 23.32 365.25 23.32 364.12 C23.32 362.99 24.57 362.07 26.1 362.07 ZM26.1 360.4 C23.31 360.4 21.05
							 362.06 21.05 364.12 C21.05 366.17 23.31 367.83 26.1 367.83 C28.89 367.83 31.15 366.17 31.15 364.12 C31.15
							 362.06 28.89 360.4 26.1 360.4 Z" class="st12"/>
			</g>
			<g id="shape53-171" v:mID="53" v:groupContext="shape" transform="translate(2.26787,-9.81013)">
				<title>工作表.53</title>
				<rect x="0" y="366.165" width="35.8117" height="1.66787" class="st13"/>
			</g>
		</g>
		<g id="shape54-173" v:mID="54" v:groupContext="shape" transform="translate(175.785,-240.622)">
			<title>工作表.54</title>
			<desc>VB01</desc>
			<v:textBlock v:margins="rect(4,4,4,4)" v:tabSpace="42.5197"/>
			<v:textRect cx="20.184" cy="360.747" width="40.37" height="14.1732"/>
			<rect x="0" y="353.66" width="40.368" height="14.1732" class="st2"/>
			<text x="5.85" y="364.35" class="st3" v:langID="2052"><v:paragraph v:horizAlign="1"/><v:tabList/>VB01</text>		</g>
		<g id="group55-176" transform="translate(57.377,-114.35)" v:mID="55" v:groupContext="group">
			<title>工作表.55</title>
			<g id="shape56-177" v:mID="56" v:groupContext="shape" transform="translate(2.01839E-013,-9.81013)">
				<title>工作表.56</title>
				<path d="M24.54 356.07 C25.22 356.07 25.78 356.48 25.78 356.98 L25.78 366.17 L2.27 366.17 L2.27 357.43 C2.27 356.68
							 3.1 356.07 4.12 356.07 L24.54 356.07 ZM24.54 354.4 L4.12 354.4 C1.85 354.4 0 355.76 0 357.43 L0 367.83
							 L28.05 367.83 L28.05 356.98 C28.05 355.55 26.48 354.4 24.54 354.4 Z" class="st12"/>
			</g>
			<g id="shape57-179" v:mID="57" v:groupContext="shape" transform="translate(25.7815,-9.81771)">
				<title>工作表.57</title>
				<path d="M4.21 358.58 L12.3 363.56 L12.3 366.17 L2.62 366.17 L2.62 358.59 L4.21 358.58 ZM5.29 356.9 L0 356.9 L0 367.83
							 L14.57 367.83 L14.57 362.85 L5.29 356.9 Z" class="st12"/>
			</g>
			<g id="shape58-181" v:mID="58" v:groupContext="shape" transform="translate(0,-2.66102)">
				<title>工作表.58</title>
				<path d="M25.04 366.17 L13.96 366.17 C14 366.36 14.03 366.57 14.03 366.78 C14.03 367.14 13.96 367.5 13.82 367.83
							 L25.18 367.83 C25.05 367.5 24.98 367.14 24.98 366.78 C24.97 366.57 24.99 366.37 25.04 366.17 ZM0 359.02
							 L0 367.83 L4.13 367.83 C4 367.5 3.93 367.14 3.93 366.78 C3.93 366.57 3.95 366.37 4 366.17 L2.27 366.17
							 L2.27 360.68 L38.08 360.68 L38.08 364.8 C38.08 365.55 37.24 366.17 36.22 366.17 L35.01 366.17 C35.05
							 366.36 35.08 366.57 35.08 366.78 C35.08 367.14 35.01 367.5 34.87 367.83 L36.23 367.83 C38.51 367.83
							 40.37 366.48 40.37 364.8 L40.37 359.02 L0 359.02 Z" class="st12"/>
			</g>
			<g id="shape59-183" v:mID="59" v:groupContext="shape" transform="translate(3.91723,1.13687E-013)">
				<title>工作表.59</title>
				<path d="M5.05 362.07 C6.59 362.07 7.83 362.99 7.83 364.12 C7.83 365.25 6.59 366.17 5.05 366.17 C3.52 366.17 2.27
							 365.25 2.27 364.12 C2.27 362.99 3.52 362.07 5.05 362.07 ZM5.05 360.4 C2.26 360.4 0 362.06 0 364.12 C0
							 366.17 2.26 367.83 5.05 367.83 C7.84 367.83 10.1 366.17 10.1 364.12 C10.1 362.06 7.84 360.4 5.05 360.4
							 ZM26.1 362.07 C27.64 362.07 28.88 362.99 28.88 364.12 C28.88 365.25 27.64 366.17 26.1 366.17 C24.57
							 366.17 23.32 365.25 23.32 364.12 C23.32 362.99 24.57 362.07 26.1 362.07 ZM26.1 360.4 C23.31 360.4 21.05
							 362.06 21.05 364.12 C21.05 366.17 23.31 367.83 26.1 367.83 C28.89 367.83 31.15 366.17 31.15 364.12 C31.15
							 362.06 28.89 360.4 26.1 360.4 Z" class="st12"/>
			</g>
			<g id="shape60-185" v:mID="60" v:groupContext="shape" transform="translate(2.26787,-9.81013)">
				<title>工作表.60</title>
				<rect x="0" y="366.165" width="35.8117" height="1.66787" class="st13"/>
			</g>
		</g>
		<g id="shape61-187" v:mID="61" v:groupContext="shape" transform="translate(57.377,-137.594)">
			<title>工作表.61</title>
			<desc>VB02</desc>
			<v:textBlock v:margins="rect(4,4,4,4)" v:tabSpace="42.5197"/>
			<v:textRect cx="20.184" cy="360.747" width="40.37" height="14.1732"/>
			<rect x="0" y="353.66" width="40.368" height="14.1732" class="st2"/>
			<text x="5.85" y="364.35" class="st3" v:langID="2052"><v:paragraph v:horizAlign="1"/><v:tabList/>VB02</text>		</g>
		<g id="group62-190" transform="translate(126.092,-62.9119)" v:mID="62" v:groupContext="group">
			<title>工作表.62</title>
			<g id="shape63-191" v:mID="63" v:groupContext="shape" transform="translate(2.01839E-013,-9.81013)">
				<title>工作表.63</title>
				<path d="M24.54 356.07 C25.22 356.07 25.78 356.48 25.78 356.98 L25.78 366.17 L2.27 366.17 L2.27 357.43 C2.27 356.68
							 3.1 356.07 4.12 356.07 L24.54 356.07 ZM24.54 354.4 L4.12 354.4 C1.85 354.4 0 355.76 0 357.43 L0 367.83
							 L28.05 367.83 L28.05 356.98 C28.05 355.55 26.48 354.4 24.54 354.4 Z" class="st12"/>
			</g>
			<g id="shape64-193" v:mID="64" v:groupContext="shape" transform="translate(25.7815,-9.81771)">
				<title>工作表.64</title>
				<path d="M4.21 358.58 L12.3 363.56 L12.3 366.17 L2.62 366.17 L2.62 358.59 L4.21 358.58 ZM5.29 356.9 L0 356.9 L0 367.83
							 L14.57 367.83 L14.57 362.85 L5.29 356.9 Z" class="st12"/>
			</g>
			<g id="shape65-195" v:mID="65" v:groupContext="shape" transform="translate(0,-2.66102)">
				<title>工作表.65</title>
				<path d="M25.04 366.17 L13.96 366.17 C14 366.36 14.03 366.57 14.03 366.78 C14.03 367.14 13.96 367.5 13.82 367.83
							 L25.18 367.83 C25.05 367.5 24.98 367.14 24.98 366.78 C24.97 366.57 24.99 366.37 25.04 366.17 ZM0 359.02
							 L0 367.83 L4.13 367.83 C4 367.5 3.93 367.14 3.93 366.78 C3.93 366.57 3.95 366.37 4 366.17 L2.27 366.17
							 L2.27 360.68 L38.08 360.68 L38.08 364.8 C38.08 365.55 37.24 366.17 36.22 366.17 L35.01 366.17 C35.05
							 366.36 35.08 366.57 35.08 366.78 C35.08 367.14 35.01 367.5 34.87 367.83 L36.23 367.83 C38.51 367.83
							 40.37 366.48 40.37 364.8 L40.37 359.02 L0 359.02 Z" class="st12"/>
			</g>
			<g id="shape66-197" v:mID="66" v:groupContext="shape" transform="translate(3.91723,1.13687E-013)">
				<title>工作表.66</title>
				<path d="M5.05 362.07 C6.59 362.07 7.83 362.99 7.83 364.12 C7.83 365.25 6.59 366.17 5.05 366.17 C3.52 366.17 2.27
							 365.25 2.27 364.12 C2.27 362.99 3.52 362.07 5.05 362.07 ZM5.05 360.4 C2.26 360.4 0 362.06 0 364.12 C0
							 366.17 2.26 367.83 5.05 367.83 C7.84 367.83 10.1 366.17 10.1 364.12 C10.1 362.06 7.84 360.4 5.05 360.4
							 ZM26.1 362.07 C27.64 362.07 28.88 362.99 28.88 364.12 C28.88 365.25 27.64 366.17 26.1 366.17 C24.57
							 366.17 23.32 365.25 23.32 364.12 C23.32 362.99 24.57 362.07 26.1 362.07 ZM26.1 360.4 C23.31 360.4 21.05
							 362.06 21.05 364.12 C21.05 366.17 23.31 367.83 26.1 367.83 C28.89 367.83 31.15 366.17 31.15 364.12 C31.15
							 362.06 28.89 360.4 26.1 360.4 Z" class="st12"/>
			</g>
			<g id="shape67-199" v:mID="67" v:groupContext="shape" transform="translate(2.26787,-9.81013)">
				<title>工作表.67</title>
				<rect x="0" y="366.165" width="35.8117" height="1.66787" class="st13"/>
			</g>
		</g>
		<g id="shape68-201" v:mID="68" v:groupContext="shape" transform="translate(126.092,-87.9876)">
			<title>工作表.68</title>
			<desc>VB03</desc>
			<v:textBlock v:margins="rect(4,4,4,4)" v:tabSpace="42.5197"/>
			<v:textRect cx="20.184" cy="360.747" width="40.37" height="14.1732"/>
			<rect x="0" y="353.66" width="40.368" height="14.1732" class="st2"/>
			<text x="5.85" y="364.35" class="st3" v:langID="2052"><v:paragraph v:horizAlign="1"/><v:tabList/>VB03</text>		</g>
		<g id="shape69-204" v:mID="69" v:groupContext="shape" transform="translate(18.375,-320.429)">
			<title>工作表.69</title>
			<desc>10</desc>
			<v:textBlock v:margins="rect(4,4,4,4)" v:tabSpace="42.5197"/>
			<v:textRect cx="19.5621" cy="363.581" width="39.13" height="8.50394"/>
			<rect x="0" y="359.329" width="39.1243" height="8.50394" class="st2"/>
			<text x="13.56" y="367.18" class="st3" v:langID="2052"><v:paragraph v:horizAlign="1"/><v:tabList/>10</text>		</g>
	</g>
</svg>
